<?xml version="1.0" standalone="no"?>
<!DOCTYPE svg PUBLIC "-//W3C//DTD SVG 20010904//EN"
 "http://www.w3.org/TR/2001/REC-SVG-20010904/DTD/svg10.dtd">
<svg version="1.0" xmlns="http://www.w3.org/2000/svg"
 width="32.000000pt" height="32.000000pt" viewBox="0 0 32.000000 32.000000"
 preserveAspectRatio="xMidYMid meet">

<g transform="translate(0.000000,32.000000) scale(0.100000,-0.100000)"
fill="#000000" stroke="none">
<path d="M155 291 c-22 -16 -51 -48 -64 -71 -22 -39 -25 -41 -37 -26 -8 12
-19 16 -33 11 -19 -6 -20 -8 -6 -34 19 -37 79 -89 112 -97 23 -6 24 -8 9 -19
-19 -14 -12 -45 11 -45 9 0 39 23 67 52 28 28 56 53 61 53 6 1 16 3 23 3 6 1
12 8 12 15 0 22 -67 93 -101 107 -29 12 -30 14 -11 24 15 9 18 16 11 34 -5 12
-10 22 -11 22 -2 -1 -21 -14 -43 -29z m54 -91 c22 -22 41 -44 41 -49 0 -5 -18
-25 -40 -45 l-41 -37 -35 27 c-57 44 -60 58 -18 104 20 22 40 40 44 40 4 0 26
-18 49 -40z"/>
<path d="M144 165 c-4 -9 -2 -21 4 -27 15 -15 44 -1 40 19 -4 23 -36 29 -44 8z"/>
</g>
</svg>
